<?xml version="1.0" encoding="utf-8" standalone="no"?>
<!DOCTYPE svg PUBLIC "-//W3C//DTD SVG 1.1//EN"
  "http://www.w3.org/Graphics/SVG/1.1/DTD/svg11.dtd">
<svg xmlns:xlink="http://www.w3.org/1999/xlink" width="855.45397pt" height="423.424895pt" viewBox="0 0 855.45397 423.424895" xmlns="http://www.w3.org/2000/svg" version="1.1">
 <metadata>
  <rdf:RDF xmlns:dc="http://purl.org/dc/elements/1.1/" xmlns:cc="http://creativecommons.org/ns#" xmlns:rdf="http://www.w3.org/1999/02/22-rdf-syntax-ns#">
   <cc:Work>
    <dc:type rdf:resource="http://purl.org/dc/dcmitype/StillImage"/>
    <dc:date>2026-03-06T17:17:36.838591</dc:date>
    <dc:format>image/svg+xml</dc:format>
    <dc:creator>
     <cc:Agent>
      <dc:title>Matplotlib v3.10.8, https://matplotlib.org/</dc:title>
     </cc:Agent>
    </dc:creator>
   </cc:Work>
  </rdf:RDF>
 </metadata>
 <defs>
  <style type="text/css">*{stroke-linejoin: round; stroke-linecap: butt}</style>
 </defs>
 <g id="figure_1">
  <g id="patch_1">
   <path d="M 0 423.424895 
L 855.45397 423.424895 
L 855.45397 0 
L 0 0 
z
" style="fill: #ffffff"/>
  </g>
  <g id="axes_1">
   <g id="patch_2">
    <path d="M 47.504375 361.276778 
L 848.25397 361.276778 
L 848.25397 21.789375 
L 47.504375 21.789375 
z
" style="fill: #ffffff"/>
   </g>
   <g id="patch_3">
    <path d="M 83.902084 48225.076487 
L 97.382717 48225.076487 
L 97.382717 228.872029 
L 83.902084 228.872029 
z
" clip-path="url(#p38f506b044)" style="fill: #1f77b4; opacity: 0.8"/>
   </g>
   <g id="patch_4">
    <path d="M 235.559204 48225.076487 
L 249.039837 48225.076487 
L 249.039837 180.953647 
L 235.559204 180.953647 
z
" clip-path="url(#p38f506b044)" style="fill: #1f77b4; opacity: 0.8"/>
   </g>
   <g id="patch_5">
    <path d="M 387.216325 48225.076487 
L 400.696957 48225.076487 
L 400.696957 133.195783 
L 387.216325 133.195783 
z
" clip-path="url(#p38f506b044)" style="fill: #1f77b4; opacity: 0.8"/>
   </g>
   <g id="patch_6">
    <path d="M 538.873445 48225.076487 
L 552.354078 48225.076487 
L 552.354078 85.122567 
L 538.873445 85.122567 
z
" clip-path="url(#p38f506b044)" style="fill: #1f77b4; opacity: 0.8"/>
   </g>
   <g id="patch_7">
    <path d="M 690.530565 48225.076487 
L 704.011198 48225.076487 
L 704.011198 37.220621 
L 690.530565 37.220621 
z
" clip-path="url(#p38f506b044)" style="fill: #1f77b4; opacity: 0.8"/>
   </g>
   <g id="patch_8">
    <path d="M 97.382717 48225.076487 
L 110.86335 48225.076487 
L 110.86335 273.318549 
L 97.382717 273.318549 
z
" clip-path="url(#p38f506b044)" style="fill: #ff7f0e; opacity: 0.8"/>
   </g>
   <g id="patch_9">
    <path d="M 249.039837 48225.076487 
L 262.52047 48225.076487 
L 262.52047 225.232007 
L 249.039837 225.232007 
z
" clip-path="url(#p38f506b044)" style="fill: #ff7f0e; opacity: 0.8"/>
   </g>
   <g id="patch_10">
    <path d="M 400.696957 48225.076487 
L 414.17759 48225.076487 
L 414.17759 177.359221 
L 400.696957 177.359221 
z
" clip-path="url(#p38f506b044)" style="fill: #ff7f0e; opacity: 0.8"/>
   </g>
   <g id="patch_11">
    <path d="M 552.354078 48225.076487 
L 565.834711 48225.076487 
L 565.834711 129.014801 
L 552.354078 129.014801 
z
" clip-path="url(#p38f506b044)" style="fill: #ff7f0e; opacity: 0.8"/>
   </g>
   <g id="patch_12">
    <path d="M 704.011198 48225.076487 
L 717.491831 48225.076487 
L 717.491831 81.43467 
L 704.011198 81.43467 
z
" clip-path="url(#p38f506b044)" style="fill: #ff7f0e; opacity: 0.8"/>
   </g>
   <g id="patch_13">
    <path d="M 110.86335 48225.076487 
L 124.343983 48225.076487 
L 124.343983 267.540485 
L 110.86335 267.540485 
z
" clip-path="url(#p38f506b044)" style="fill: #2ca02c; opacity: 0.8"/>
   </g>
   <g id="patch_14">
    <path d="M 262.52047 48225.076487 
L 276.001103 48225.076487 
L 276.001103 219.537856 
L 262.52047 219.537856 
z
" clip-path="url(#p38f506b044)" style="fill: #2ca02c; opacity: 0.8"/>
   </g>
   <g id="patch_15">
    <path d="M 414.17759 48225.076487 
L 427.658223 48225.076487 
L 427.658223 171.541583 
L 414.17759 171.541583 
z
" clip-path="url(#p38f506b044)" style="fill: #2ca02c; opacity: 0.8"/>
   </g>
   <g id="patch_16">
    <path d="M 565.834711 48225.076487 
L 579.315344 48225.076487 
L 579.315344 123.278884 
L 565.834711 123.278884 
z
" clip-path="url(#p38f506b044)" style="fill: #2ca02c; opacity: 0.8"/>
   </g>
   <g id="patch_17">
    <path d="M 717.491831 48225.076487 
L 730.972464 48225.076487 
L 730.972464 75.702849 
L 717.491831 75.702849 
z
" clip-path="url(#p38f506b044)" style="fill: #2ca02c; opacity: 0.8"/>
   </g>
   <g id="patch_18">
    <path d="M 124.343983 48225.076487 
L 137.824616 48225.076487 
L 137.824616 270.192453 
L 124.343983 270.192453 
z
" clip-path="url(#p38f506b044)" style="fill: #d62728; opacity: 0.8"/>
   </g>
   <g id="patch_19">
    <path d="M 276.001103 48225.076487 
L 289.481736 48225.076487 
L 289.481736 221.912951 
L 276.001103 221.912951 
z
" clip-path="url(#p38f506b044)" style="fill: #d62728; opacity: 0.8"/>
   </g>
   <g id="patch_20">
    <path d="M 427.658223 48225.076487 
L 441.138856 48225.076487 
L 441.138856 174.116808 
L 427.658223 174.116808 
z
" clip-path="url(#p38f506b044)" style="fill: #d62728; opacity: 0.8"/>
   </g>
   <g id="patch_21">
    <path d="M 579.315344 48225.076487 
L 592.795977 48225.076487 
L 592.795977 126.038958 
L 579.315344 126.038958 
z
" clip-path="url(#p38f506b044)" style="fill: #d62728; opacity: 0.8"/>
   </g>
   <g id="patch_22">
    <path d="M 730.972464 48225.076487 
L 744.453097 48225.076487 
L 744.453097 77.998864 
L 730.972464 77.998864 
z
" clip-path="url(#p38f506b044)" style="fill: #d62728; opacity: 0.8"/>
   </g>
   <g id="patch_23">
    <path d="M 137.824616 48225.076487 
L 151.305248 48225.076487 
L 151.305248 345.845532 
L 137.824616 345.845532 
z
" clip-path="url(#p38f506b044)" style="fill: #9467bd; opacity: 0.8"/>
   </g>
   <g id="patch_24">
    <path d="M 289.481736 48225.076487 
L 302.962369 48225.076487 
L 302.962369 297.7858 
L 289.481736 297.7858 
z
" clip-path="url(#p38f506b044)" style="fill: #9467bd; opacity: 0.8"/>
   </g>
   <g id="patch_25">
    <path d="M 441.138856 48225.076487 
L 454.619489 48225.076487 
L 454.619489 249.380091 
L 441.138856 249.380091 
z
" clip-path="url(#p38f506b044)" style="fill: #9467bd; opacity: 0.8"/>
   </g>
   <g id="patch_26">
    <path d="M 592.795977 48225.076487 
L 606.276609 48225.076487 
L 606.276609 201.609825 
L 592.795977 201.609825 
z
" clip-path="url(#p38f506b044)" style="fill: #9467bd; opacity: 0.8"/>
   </g>
   <g id="patch_27">
    <path d="M 744.453097 48225.076487 
L 757.93373 48225.076487 
L 757.93373 153.625309 
L 744.453097 153.625309 
z
" clip-path="url(#p38f506b044)" style="fill: #9467bd; opacity: 0.8"/>
   </g>
   <g id="patch_28">
    <path d="M 151.305248 48225.076487 
L 164.785881 48225.076487 
L 164.785881 279.642874 
L 151.305248 279.642874 
z
" clip-path="url(#p38f506b044)" style="fill: #8c564b; opacity: 0.8"/>
   </g>
   <g id="patch_29">
    <path d="M 302.962369 48225.076487 
L 316.443002 48225.076487 
L 316.443002 231.528811 
L 302.962369 231.528811 
z
" clip-path="url(#p38f506b044)" style="fill: #8c564b; opacity: 0.8"/>
   </g>
   <g id="patch_30">
    <path d="M 454.619489 48225.076487 
L 468.100122 48225.076487 
L 468.100122 183.718092 
L 454.619489 183.718092 
z
" clip-path="url(#p38f506b044)" style="fill: #8c564b; opacity: 0.8"/>
   </g>
   <g id="patch_31">
    <path d="M 606.276609 48225.076487 
L 619.757242 48225.076487 
L 619.757242 135.94035 
L 606.276609 135.94035 
z
" clip-path="url(#p38f506b044)" style="fill: #8c564b; opacity: 0.8"/>
   </g>
   <g id="patch_32">
    <path d="M 757.93373 48225.076487 
L 771.414363 48225.076487 
L 771.414363 87.577788 
L 757.93373 87.577788 
z
" clip-path="url(#p38f506b044)" style="fill: #8c564b; opacity: 0.8"/>
   </g>
   <g id="patch_33">
    <path d="M 164.785881 48225.076487 
L 178.266514 48225.076487 
L 178.266514 316.065174 
L 164.785881 316.065174 
z
" clip-path="url(#p38f506b044)" style="fill: #e377c2; opacity: 0.8"/>
   </g>
   <g id="patch_34">
    <path d="M 316.443002 48225.076487 
L 329.923635 48225.076487 
L 329.923635 268.249085 
L 316.443002 268.249085 
z
" clip-path="url(#p38f506b044)" style="fill: #e377c2; opacity: 0.8"/>
   </g>
   <g id="patch_35">
    <path d="M 468.100122 48225.076487 
L 481.580755 48225.076487 
L 481.580755 219.985433 
L 468.100122 219.985433 
z
" clip-path="url(#p38f506b044)" style="fill: #e377c2; opacity: 0.8"/>
   </g>
   <g id="patch_36">
    <path d="M 619.757242 48225.076487 
L 633.237875 48225.076487 
L 633.237875 171.959517 
L 619.757242 171.959517 
z
" clip-path="url(#p38f506b044)" style="fill: #e377c2; opacity: 0.8"/>
   </g>
   <g id="patch_37">
    <path d="M 771.414363 48225.076487 
L 784.894996 48225.076487 
L 784.894996 124.018166 
L 771.414363 124.018166 
z
" clip-path="url(#p38f506b044)" style="fill: #e377c2; opacity: 0.8"/>
   </g>
   <g id="patch_38">
    <path d="M 178.266514 48225.076487 
L 191.747147 48225.076487 
L 191.747147 255.831789 
L 178.266514 255.831789 
z
" clip-path="url(#p38f506b044)" style="fill: #7f7f7f; opacity: 0.8"/>
   </g>
   <g id="patch_39">
    <path d="M 329.923635 48225.076487 
L 343.404268 48225.076487 
L 343.404268 207.736735 
L 329.923635 207.736735 
z
" clip-path="url(#p38f506b044)" style="fill: #7f7f7f; opacity: 0.8"/>
   </g>
   <g id="patch_40">
    <path d="M 481.580755 48225.076487 
L 495.061388 48225.076487 
L 495.061388 159.769123 
L 481.580755 159.769123 
z
" clip-path="url(#p38f506b044)" style="fill: #7f7f7f; opacity: 0.8"/>
   </g>
   <g id="patch_41">
    <path d="M 633.237875 48225.076487 
L 646.718508 48225.076487 
L 646.718508 111.860473 
L 633.237875 111.860473 
z
" clip-path="url(#p38f506b044)" style="fill: #7f7f7f; opacity: 0.8"/>
   </g>
   <g id="patch_42">
    <path d="M 784.894996 48225.076487 
L 798.375629 48225.076487 
L 798.375629 63.781481 
L 784.894996 63.781481 
z
" clip-path="url(#p38f506b044)" style="fill: #7f7f7f; opacity: 0.8"/>
   </g>
   <g id="patch_43">
    <path d="M 191.747147 48225.076487 
L 205.22778 48225.076487 
L 205.22778 312.281389 
L 191.747147 312.281389 
z
" clip-path="url(#p38f506b044)" style="fill: #bcbd22; opacity: 0.8"/>
   </g>
   <g id="patch_44">
    <path d="M 343.404268 48225.076487 
L 356.8849 48225.076487 
L 356.8849 264.427868 
L 343.404268 264.427868 
z
" clip-path="url(#p38f506b044)" style="fill: #bcbd22; opacity: 0.8"/>
   </g>
   <g id="patch_45">
    <path d="M 495.061388 48225.076487 
L 508.542021 48225.076487 
L 508.542021 216.286922 
L 495.061388 216.286922 
z
" clip-path="url(#p38f506b044)" style="fill: #bcbd22; opacity: 0.8"/>
   </g>
   <g id="patch_46">
    <path d="M 646.718508 48225.076487 
L 660.199141 48225.076487 
L 660.199141 168.327907 
L 646.718508 168.327907 
z
" clip-path="url(#p38f506b044)" style="fill: #bcbd22; opacity: 0.8"/>
   </g>
   <g id="patch_47">
    <path d="M 798.375629 48225.076487 
L 811.856261 48225.076487 
L 811.856261 120.252108 
L 798.375629 120.252108 
z
" clip-path="url(#p38f506b044)" style="fill: #bcbd22; opacity: 0.8"/>
   </g>
   <g id="matplotlib.axis_1">
    <g id="xtick_1">
     <g id="line2d_1">
      <defs>
       <path id="me70bde481a" d="M 0 0 
L 0 3.5 
" style="stroke: #000000; stroke-width: 0.8"/>
      </defs>
      <g>
       <use xlink:href="#me70bde481a" x="144.564932" y="361.276778" style="stroke: #000000; stroke-width: 0.8"/>
      </g>
     </g>
     <g id="text_1">
      <!-- pristine -->
      <g transform="translate(122.786264 395.445812) rotate(-45) scale(0.09 -0.09)">
       <defs>
        <path id="ArialMT-70" d="M 422 -1272 
L 422 3319 
L 934 3319 
L 934 2888 
Q 1116 3141 1344 3267 
Q 1572 3394 1897 3394 
Q 2322 3394 2647 3175 
Q 2972 2956 3137 2557 
Q 3303 2159 3303 1684 
Q 3303 1175 3120 767 
Q 2938 359 2589 142 
Q 2241 -75 1856 -75 
Q 1575 -75 1351 44 
Q 1128 163 984 344 
L 984 -1272 
L 422 -1272 
z
M 931 1641 
Q 931 1000 1190 694 
Q 1450 388 1819 388 
Q 2194 388 2461 705 
Q 2728 1022 2728 1688 
Q 2728 2322 2467 2637 
Q 2206 2953 1844 2953 
Q 1484 2953 1207 2617 
Q 931 2281 931 1641 
z
" transform="scale(0.015625)"/>
        <path id="ArialMT-72" d="M 416 0 
L 416 3319 
L 922 3319 
L 922 2816 
Q 1116 3169 1280 3281 
Q 1444 3394 1641 3394 
Q 1925 3394 2219 3213 
L 2025 2691 
Q 1819 2813 1613 2813 
Q 1428 2813 1281 2702 
Q 1134 2591 1072 2394 
Q 978 2094 978 1738 
L 978 0 
L 416 0 
z
" transform="scale(0.015625)"/>
        <path id="ArialMT-69" d="M 425 3934 
L 425 4581 
L 988 4581 
L 988 3934 
L 425 3934 
z
M 425 0 
L 425 3319 
L 988 3319 
L 988 0 
L 425 0 
z
" transform="scale(0.015625)"/>
        <path id="ArialMT-73" d="M 197 991 
L 753 1078 
Q 800 744 1014 566 
Q 1228 388 1613 388 
Q 2000 388 2187 545 
Q 2375 703 2375 916 
Q 2375 1106 2209 1216 
Q 2094 1291 1634 1406 
Q 1016 1563 777 1677 
Q 538 1791 414 1992 
Q 291 2194 291 2438 
Q 291 2659 392 2848 
Q 494 3038 669 3163 
Q 800 3259 1026 3326 
Q 1253 3394 1513 3394 
Q 1903 3394 2198 3281 
Q 2494 3169 2634 2976 
Q 2775 2784 2828 2463 
L 2278 2388 
Q 2241 2644 2061 2787 
Q 1881 2931 1553 2931 
Q 1166 2931 1000 2803 
Q 834 2675 834 2503 
Q 834 2394 903 2306 
Q 972 2216 1119 2156 
Q 1203 2125 1616 2013 
Q 2213 1853 2448 1751 
Q 2684 1650 2818 1456 
Q 2953 1263 2953 975 
Q 2953 694 2789 445 
Q 2625 197 2315 61 
Q 2006 -75 1616 -75 
Q 969 -75 630 194 
Q 291 463 197 991 
z
" transform="scale(0.015625)"/>
        <path id="ArialMT-74" d="M 1650 503 
L 1731 6 
Q 1494 -44 1306 -44 
Q 1000 -44 831 53 
Q 663 150 594 308 
Q 525 466 525 972 
L 525 2881 
L 113 2881 
L 113 3319 
L 525 3319 
L 525 4141 
L 1084 4478 
L 1084 3319 
L 1650 3319 
L 1650 2881 
L 1084 2881 
L 1084 941 
Q 1084 700 1114 631 
Q 1144 563 1211 522 
Q 1278 481 1403 481 
Q 1497 481 1650 503 
z
" transform="scale(0.015625)"/>
        <path id="ArialMT-6e" d="M 422 0 
L 422 3319 
L 928 3319 
L 928 2847 
Q 1294 3394 1984 3394 
Q 2284 3394 2536 3286 
Q 2788 3178 2913 3003 
Q 3038 2828 3088 2588 
Q 3119 2431 3119 2041 
L 3119 0 
L 2556 0 
L 2556 2019 
Q 2556 2363 2490 2533 
Q 2425 2703 2258 2804 
Q 2091 2906 1866 2906 
Q 1506 2906 1245 2678 
Q 984 2450 984 1813 
L 984 0 
L 422 0 
z
" transform="scale(0.015625)"/>
        <path id="ArialMT-65" d="M 2694 1069 
L 3275 997 
Q 3138 488 2766 206 
Q 2394 -75 1816 -75 
Q 1088 -75 661 373 
Q 234 822 234 1631 
Q 234 2469 665 2931 
Q 1097 3394 1784 3394 
Q 2450 3394 2872 2941 
Q 3294 2488 3294 1666 
Q 3294 1616 3291 1516 
L 816 1516 
Q 847 969 1125 678 
Q 1403 388 1819 388 
Q 2128 388 2347 550 
Q 2566 713 2694 1069 
z
M 847 1978 
L 2700 1978 
Q 2663 2397 2488 2606 
Q 2219 2931 1791 2931 
Q 1403 2931 1139 2672 
Q 875 2413 847 1978 
z
" transform="scale(0.015625)"/>
       </defs>
       <use xlink:href="#ArialMT-70"/>
       <use xlink:href="#ArialMT-72" transform="translate(55.615234 0)"/>
       <use xlink:href="#ArialMT-69" transform="translate(88.916016 0)"/>
       <use xlink:href="#ArialMT-73" transform="translate(111.132812 0)"/>
       <use xlink:href="#ArialMT-74" transform="translate(161.132812 0)"/>
       <use xlink:href="#ArialMT-69" transform="translate(188.916016 0)"/>
       <use xlink:href="#ArialMT-6e" transform="translate(211.132812 0)"/>
       <use xlink:href="#ArialMT-65" transform="translate(266.748047 0)"/>
      </g>
     </g>
    </g>
    <g id="xtick_2">
     <g id="line2d_2">
      <g>
       <use xlink:href="#me70bde481a" x="296.222052" y="361.276778" style="stroke: #000000; stroke-width: 0.8"/>
      </g>
     </g>
     <g id="text_2">
      <!-- low -->
      <g transform="translate(285.40829 384.480906) rotate(-45) scale(0.09 -0.09)">
       <defs>
        <path id="ArialMT-6c" d="M 409 0 
L 409 4581 
L 972 4581 
L 972 0 
L 409 0 
z
" transform="scale(0.015625)"/>
        <path id="ArialMT-6f" d="M 213 1659 
Q 213 2581 725 3025 
Q 1153 3394 1769 3394 
Q 2453 3394 2887 2945 
Q 3322 2497 3322 1706 
Q 3322 1066 3130 698 
Q 2938 331 2570 128 
Q 2203 -75 1769 -75 
Q 1072 -75 642 372 
Q 213 819 213 1659 
z
M 791 1659 
Q 791 1022 1069 705 
Q 1347 388 1769 388 
Q 2188 388 2466 706 
Q 2744 1025 2744 1678 
Q 2744 2294 2464 2611 
Q 2184 2928 1769 2928 
Q 1347 2928 1069 2612 
Q 791 2297 791 1659 
z
" transform="scale(0.015625)"/>
        <path id="ArialMT-77" d="M 1034 0 
L 19 3319 
L 600 3319 
L 1128 1403 
L 1325 691 
Q 1338 744 1497 1375 
L 2025 3319 
L 2603 3319 
L 3100 1394 
L 3266 759 
L 3456 1400 
L 4025 3319 
L 4572 3319 
L 3534 0 
L 2950 0 
L 2422 1988 
L 2294 2553 
L 1622 0 
L 1034 0 
z
" transform="scale(0.015625)"/>
       </defs>
       <use xlink:href="#ArialMT-6c"/>
       <use xlink:href="#ArialMT-6f" transform="translate(22.216797 0)"/>
       <use xlink:href="#ArialMT-77" transform="translate(77.832031 0)"/>
      </g>
     </g>
    </g>
    <g id="xtick_3">
     <g id="line2d_3">
      <g>
       <use xlink:href="#me70bde481a" x="447.879173" y="361.276778" style="stroke: #000000; stroke-width: 0.8"/>
      </g>
     </g>
     <g id="text_3">
      <!-- moderate -->
      <g transform="translate(419.731572 401.814745) rotate(-45) scale(0.09 -0.09)">
       <defs>
        <path id="ArialMT-6d" d="M 422 0 
L 422 3319 
L 925 3319 
L 925 2853 
Q 1081 3097 1340 3245 
Q 1600 3394 1931 3394 
Q 2300 3394 2536 3241 
Q 2772 3088 2869 2813 
Q 3263 3394 3894 3394 
Q 4388 3394 4653 3120 
Q 4919 2847 4919 2278 
L 4919 0 
L 4359 0 
L 4359 2091 
Q 4359 2428 4304 2576 
Q 4250 2725 4106 2815 
Q 3963 2906 3769 2906 
Q 3419 2906 3187 2673 
Q 2956 2441 2956 1928 
L 2956 0 
L 2394 0 
L 2394 2156 
Q 2394 2531 2256 2718 
Q 2119 2906 1806 2906 
Q 1569 2906 1367 2781 
Q 1166 2656 1075 2415 
Q 984 2175 984 1722 
L 984 0 
L 422 0 
z
" transform="scale(0.015625)"/>
        <path id="ArialMT-64" d="M 2575 0 
L 2575 419 
Q 2259 -75 1647 -75 
Q 1250 -75 917 144 
Q 584 363 401 755 
Q 219 1147 219 1656 
Q 219 2153 384 2558 
Q 550 2963 881 3178 
Q 1213 3394 1622 3394 
Q 1922 3394 2156 3267 
Q 2391 3141 2538 2938 
L 2538 4581 
L 3097 4581 
L 3097 0 
L 2575 0 
z
M 797 1656 
Q 797 1019 1065 703 
Q 1334 388 1700 388 
Q 2069 388 2326 689 
Q 2584 991 2584 1609 
Q 2584 2291 2321 2609 
Q 2059 2928 1675 2928 
Q 1300 2928 1048 2622 
Q 797 2316 797 1656 
z
" transform="scale(0.015625)"/>
        <path id="ArialMT-61" d="M 2588 409 
Q 2275 144 1986 34 
Q 1697 -75 1366 -75 
Q 819 -75 525 192 
Q 231 459 231 875 
Q 231 1119 342 1320 
Q 453 1522 633 1644 
Q 813 1766 1038 1828 
Q 1203 1872 1538 1913 
Q 2219 1994 2541 2106 
Q 2544 2222 2544 2253 
Q 2544 2597 2384 2738 
Q 2169 2928 1744 2928 
Q 1347 2928 1158 2789 
Q 969 2650 878 2297 
L 328 2372 
Q 403 2725 575 2942 
Q 747 3159 1072 3276 
Q 1397 3394 1825 3394 
Q 2250 3394 2515 3294 
Q 2781 3194 2906 3042 
Q 3031 2891 3081 2659 
Q 3109 2516 3109 2141 
L 3109 1391 
Q 3109 606 3145 398 
Q 3181 191 3288 0 
L 2700 0 
Q 2613 175 2588 409 
z
M 2541 1666 
Q 2234 1541 1622 1453 
Q 1275 1403 1131 1340 
Q 988 1278 909 1158 
Q 831 1038 831 891 
Q 831 666 1001 516 
Q 1172 366 1500 366 
Q 1825 366 2078 508 
Q 2331 650 2450 897 
Q 2541 1088 2541 1459 
L 2541 1666 
z
" transform="scale(0.015625)"/>
       </defs>
       <use xlink:href="#ArialMT-6d"/>
       <use xlink:href="#ArialMT-6f" transform="translate(83.300781 0)"/>
       <use xlink:href="#ArialMT-64" transform="translate(138.916016 0)"/>
       <use xlink:href="#ArialMT-65" transform="translate(194.53125 0)"/>
       <use xlink:href="#ArialMT-72" transform="translate(250.146484 0)"/>
       <use xlink:href="#ArialMT-61" transform="translate(283.447266 0)"/>
       <use xlink:href="#ArialMT-74" transform="translate(339.0625 0)"/>
       <use xlink:href="#ArialMT-65" transform="translate(366.845703 0)"/>
      </g>
     </g>
    </g>
    <g id="xtick_4">
     <g id="line2d_4">
      <g>
       <use xlink:href="#me70bde481a" x="599.536293" y="361.276778" style="stroke: #000000; stroke-width: 0.8"/>
      </g>
     </g>
     <g id="text_4">
      <!-- high -->
      <g transform="translate(586.166009 386.962851) rotate(-45) scale(0.09 -0.09)">
       <defs>
        <path id="ArialMT-68" d="M 422 0 
L 422 4581 
L 984 4581 
L 984 2938 
Q 1378 3394 1978 3394 
Q 2347 3394 2619 3248 
Q 2891 3103 3008 2847 
Q 3125 2591 3125 2103 
L 3125 0 
L 2563 0 
L 2563 2103 
Q 2563 2525 2380 2717 
Q 2197 2909 1863 2909 
Q 1613 2909 1392 2779 
Q 1172 2650 1078 2428 
Q 984 2206 984 1816 
L 984 0 
L 422 0 
z
" transform="scale(0.015625)"/>
        <path id="ArialMT-67" d="M 319 -275 
L 866 -356 
Q 900 -609 1056 -725 
Q 1266 -881 1628 -881 
Q 2019 -881 2231 -725 
Q 2444 -569 2519 -288 
Q 2563 -116 2559 434 
Q 2191 0 1641 0 
Q 956 0 581 494 
Q 206 988 206 1678 
Q 206 2153 378 2554 
Q 550 2956 876 3175 
Q 1203 3394 1644 3394 
Q 2231 3394 2613 2919 
L 2613 3319 
L 3131 3319 
L 3131 450 
Q 3131 -325 2973 -648 
Q 2816 -972 2473 -1159 
Q 2131 -1347 1631 -1347 
Q 1038 -1347 672 -1080 
Q 306 -813 319 -275 
z
M 784 1719 
Q 784 1066 1043 766 
Q 1303 466 1694 466 
Q 2081 466 2343 764 
Q 2606 1063 2606 1700 
Q 2606 2309 2336 2618 
Q 2066 2928 1684 2928 
Q 1309 2928 1046 2623 
Q 784 2319 784 1719 
z
" transform="scale(0.015625)"/>
       </defs>
       <use xlink:href="#ArialMT-68"/>
       <use xlink:href="#ArialMT-69" transform="translate(55.615234 0)"/>
       <use xlink:href="#ArialMT-67" transform="translate(77.832031 0)"/>
       <use xlink:href="#ArialMT-68" transform="translate(133.447266 0)"/>
      </g>
     </g>
    </g>
    <g id="xtick_5">
     <g id="line2d_5">
      <g>
       <use xlink:href="#me70bde481a" x="751.193413" y="361.276778" style="stroke: #000000; stroke-width: 0.8"/>
      </g>
     </g>
     <g id="text_5">
      <!-- extreme -->
      <g transform="translate(726.94175 397.918808) rotate(-45) scale(0.09 -0.09)">
       <defs>
        <path id="ArialMT-78" d="M 47 0 
L 1259 1725 
L 138 3319 
L 841 3319 
L 1350 2541 
Q 1494 2319 1581 2169 
Q 1719 2375 1834 2534 
L 2394 3319 
L 3066 3319 
L 1919 1756 
L 3153 0 
L 2463 0 
L 1781 1031 
L 1600 1309 
L 728 0 
L 47 0 
z
" transform="scale(0.015625)"/>
       </defs>
       <use xlink:href="#ArialMT-65"/>
       <use xlink:href="#ArialMT-78" transform="translate(55.615234 0)"/>
       <use xlink:href="#ArialMT-74" transform="translate(105.615234 0)"/>
       <use xlink:href="#ArialMT-72" transform="translate(133.398438 0)"/>
       <use xlink:href="#ArialMT-65" transform="translate(166.699219 0)"/>
       <use xlink:href="#ArialMT-6d" transform="translate(222.314453 0)"/>
       <use xlink:href="#ArialMT-65" transform="translate(305.615234 0)"/>
      </g>
     </g>
    </g>
    <g id="text_6">
     <!-- MP Concentration Scenario -->
     <g transform="translate(386.82761 414.237395) scale(0.1 -0.1)">
      <defs>
       <path id="ArialMT-4d" d="M 475 0 
L 475 4581 
L 1388 4581 
L 2472 1338 
Q 2622 884 2691 659 
Q 2769 909 2934 1394 
L 4031 4581 
L 4847 4581 
L 4847 0 
L 4263 0 
L 4263 3834 
L 2931 0 
L 2384 0 
L 1059 3900 
L 1059 0 
L 475 0 
z
" transform="scale(0.015625)"/>
       <path id="ArialMT-50" d="M 494 0 
L 494 4581 
L 2222 4581 
Q 2678 4581 2919 4538 
Q 3256 4481 3484 4323 
Q 3713 4166 3852 3881 
Q 3991 3597 3991 3256 
Q 3991 2672 3619 2267 
Q 3247 1863 2275 1863 
L 1100 1863 
L 1100 0 
L 494 0 
z
M 1100 2403 
L 2284 2403 
Q 2872 2403 3119 2622 
Q 3366 2841 3366 3238 
Q 3366 3525 3220 3729 
Q 3075 3934 2838 4000 
Q 2684 4041 2272 4041 
L 1100 4041 
L 1100 2403 
z
" transform="scale(0.015625)"/>
       <path id="ArialMT-20" transform="scale(0.015625)"/>
       <path id="ArialMT-43" d="M 3763 1606 
L 4369 1453 
Q 4178 706 3683 314 
Q 3188 -78 2472 -78 
Q 1731 -78 1267 223 
Q 803 525 561 1097 
Q 319 1669 319 2325 
Q 319 3041 592 3573 
Q 866 4106 1370 4382 
Q 1875 4659 2481 4659 
Q 3169 4659 3637 4309 
Q 4106 3959 4291 3325 
L 3694 3184 
Q 3534 3684 3231 3912 
Q 2928 4141 2469 4141 
Q 1941 4141 1586 3887 
Q 1231 3634 1087 3207 
Q 944 2781 944 2328 
Q 944 1744 1114 1308 
Q 1284 872 1643 656 
Q 2003 441 2422 441 
Q 2931 441 3284 734 
Q 3638 1028 3763 1606 
z
" transform="scale(0.015625)"/>
       <path id="ArialMT-63" d="M 2588 1216 
L 3141 1144 
Q 3050 572 2676 248 
Q 2303 -75 1759 -75 
Q 1078 -75 664 370 
Q 250 816 250 1647 
Q 250 2184 428 2587 
Q 606 2991 970 3192 
Q 1334 3394 1763 3394 
Q 2303 3394 2647 3120 
Q 2991 2847 3088 2344 
L 2541 2259 
Q 2463 2594 2264 2762 
Q 2066 2931 1784 2931 
Q 1359 2931 1093 2626 
Q 828 2322 828 1663 
Q 828 994 1084 691 
Q 1341 388 1753 388 
Q 2084 388 2306 591 
Q 2528 794 2588 1216 
z
" transform="scale(0.015625)"/>
       <path id="ArialMT-53" d="M 288 1472 
L 859 1522 
Q 900 1178 1048 958 
Q 1197 738 1509 602 
Q 1822 466 2213 466 
Q 2559 466 2825 569 
Q 3091 672 3220 851 
Q 3350 1031 3350 1244 
Q 3350 1459 3225 1620 
Q 3100 1781 2813 1891 
Q 2628 1963 1997 2114 
Q 1366 2266 1113 2400 
Q 784 2572 623 2826 
Q 463 3081 463 3397 
Q 463 3744 659 4045 
Q 856 4347 1234 4503 
Q 1613 4659 2075 4659 
Q 2584 4659 2973 4495 
Q 3363 4331 3572 4012 
Q 3781 3694 3797 3291 
L 3216 3247 
Q 3169 3681 2898 3903 
Q 2628 4125 2100 4125 
Q 1550 4125 1298 3923 
Q 1047 3722 1047 3438 
Q 1047 3191 1225 3031 
Q 1400 2872 2139 2705 
Q 2878 2538 3153 2413 
Q 3553 2228 3743 1945 
Q 3934 1663 3934 1294 
Q 3934 928 3725 604 
Q 3516 281 3123 101 
Q 2731 -78 2241 -78 
Q 1619 -78 1198 103 
Q 778 284 539 648 
Q 300 1013 288 1472 
z
" transform="scale(0.015625)"/>
      </defs>
      <use xlink:href="#ArialMT-4d"/>
      <use xlink:href="#ArialMT-50" transform="translate(83.300781 0)"/>
      <use xlink:href="#ArialMT-20" transform="translate(148.25 0)"/>
      <use xlink:href="#ArialMT-43" transform="translate(176.033203 0)"/>
      <use xlink:href="#ArialMT-6f" transform="translate(248.25 0)"/>
      <use xlink:href="#ArialMT-6e" transform="translate(303.865234 0)"/>
      <use xlink:href="#ArialMT-63" transform="translate(359.480469 0)"/>
      <use xlink:href="#ArialMT-65" transform="translate(409.480469 0)"/>
      <use xlink:href="#ArialMT-6e" transform="translate(465.095703 0)"/>
      <use xlink:href="#ArialMT-74" transform="translate(520.710938 0)"/>
      <use xlink:href="#ArialMT-72" transform="translate(548.494141 0)"/>
      <use xlink:href="#ArialMT-61" transform="translate(581.794922 0)"/>
      <use xlink:href="#ArialMT-74" transform="translate(637.410156 0)"/>
      <use xlink:href="#ArialMT-69" transform="translate(665.193359 0)"/>
      <use xlink:href="#ArialMT-6f" transform="translate(687.410156 0)"/>
      <use xlink:href="#ArialMT-6e" transform="translate(743.025391 0)"/>
      <use xlink:href="#ArialMT-20" transform="translate(798.640625 0)"/>
      <use xlink:href="#ArialMT-53" transform="translate(826.423828 0)"/>
      <use xlink:href="#ArialMT-63" transform="translate(893.123047 0)"/>
      <use xlink:href="#ArialMT-65" transform="translate(943.123047 0)"/>
      <use xlink:href="#ArialMT-6e" transform="translate(998.738281 0)"/>
      <use xlink:href="#ArialMT-61" transform="translate(1054.353516 0)"/>
      <use xlink:href="#ArialMT-72" transform="translate(1109.96875 0)"/>
      <use xlink:href="#ArialMT-69" transform="translate(1143.269531 0)"/>
      <use xlink:href="#ArialMT-6f" transform="translate(1165.486328 0)"/>
     </g>
    </g>
   </g>
   <g id="matplotlib.axis_2">
    <g id="ytick_1">
     <g id="line2d_6">
      <path d="M 47.504375 321.588425 
L 848.25397 321.588425 
" clip-path="url(#p38f506b044)" style="fill: none; stroke: #b0b0b0; stroke-opacity: 0.3; stroke-width: 0.8; stroke-linecap: square"/>
     </g>
     <g id="line2d_7">
      <defs>
       <path id="mc4d4c8f24e" d="M 0 0 
L -3.5 0 
" style="stroke: #000000; stroke-width: 0.8"/>
      </defs>
      <g>
       <use xlink:href="#mc4d4c8f24e" x="47.504375" y="321.588425" style="stroke: #000000; stroke-width: 0.8"/>
      </g>
     </g>
     <g id="text_7">
      <!-- $\mathdefault{10^{-2}}$ -->
      <g transform="translate(20.584375 326.22905) scale(0.09 -0.09)">
       <defs>
        <path id="ArialMT-31" d="M 2384 0 
L 1822 0 
L 1822 3584 
Q 1619 3391 1289 3197 
Q 959 3003 697 2906 
L 697 3450 
Q 1169 3672 1522 3987 
Q 1875 4303 2022 4600 
L 2384 4600 
L 2384 0 
z
" transform="scale(0.015625)"/>
        <path id="ArialMT-30" d="M 266 2259 
Q 266 3072 433 3567 
Q 600 4063 929 4331 
Q 1259 4600 1759 4600 
Q 2128 4600 2406 4451 
Q 2684 4303 2865 4023 
Q 3047 3744 3150 3342 
Q 3253 2941 3253 2259 
Q 3253 1453 3087 958 
Q 2922 463 2592 192 
Q 2263 -78 1759 -78 
Q 1097 -78 719 397 
Q 266 969 266 2259 
z
M 844 2259 
Q 844 1131 1108 757 
Q 1372 384 1759 384 
Q 2147 384 2411 759 
Q 2675 1134 2675 2259 
Q 2675 3391 2411 3762 
Q 2147 4134 1753 4134 
Q 1366 4134 1134 3806 
Q 844 3388 844 2259 
z
" transform="scale(0.015625)"/>
        <path id="ArialMT-2212" d="M 3381 1997 
L 356 1997 
L 356 2522 
L 3381 2522 
L 3381 1997 
z
" transform="scale(0.015625)"/>
        <path id="ArialMT-32" d="M 3222 541 
L 3222 0 
L 194 0 
Q 188 203 259 391 
Q 375 700 629 1000 
Q 884 1300 1366 1694 
Q 2113 2306 2375 2664 
Q 2638 3022 2638 3341 
Q 2638 3675 2398 3904 
Q 2159 4134 1775 4134 
Q 1369 4134 1125 3890 
Q 881 3647 878 3216 
L 300 3275 
Q 359 3922 746 4261 
Q 1134 4600 1788 4600 
Q 2447 4600 2831 4234 
Q 3216 3869 3216 3328 
Q 3216 3053 3103 2787 
Q 2991 2522 2730 2228 
Q 2469 1934 1863 1422 
Q 1356 997 1212 845 
Q 1069 694 975 541 
L 3222 541 
z
" transform="scale(0.015625)"/>
       </defs>
       <use xlink:href="#ArialMT-31" transform="translate(0 0.99375)"/>
       <use xlink:href="#ArialMT-30" transform="translate(55.615234 0.99375)"/>
       <use xlink:href="#ArialMT-2212" transform="translate(112.972813 70.6875) scale(0.7)"/>
       <use xlink:href="#ArialMT-32" transform="translate(153.851719 70.6875) scale(0.7)"/>
      </g>
     </g>
    </g>
    <g id="ytick_2">
     <g id="line2d_8">
      <path d="M 47.504375 273.588938 
L 848.25397 273.588938 
" clip-path="url(#p38f506b044)" style="fill: none; stroke: #b0b0b0; stroke-opacity: 0.3; stroke-width: 0.8; stroke-linecap: square"/>
     </g>
     <g id="line2d_9">
      <g>
       <use xlink:href="#mc4d4c8f24e" x="47.504375" y="273.588938" style="stroke: #000000; stroke-width: 0.8"/>
      </g>
     </g>
     <g id="text_8">
      <!-- $\mathdefault{10^{-1}}$ -->
      <g transform="translate(20.584375 278.229563) scale(0.09 -0.09)">
       <use xlink:href="#ArialMT-31" transform="translate(0 0.99375)"/>
       <use xlink:href="#ArialMT-30" transform="translate(55.615234 0.99375)"/>
       <use xlink:href="#ArialMT-2212" transform="translate(112.972813 70.6875) scale(0.7)"/>
       <use xlink:href="#ArialMT-31" transform="translate(153.851719 70.6875) scale(0.7)"/>
      </g>
     </g>
    </g>
    <g id="ytick_3">
     <g id="line2d_10">
      <path d="M 47.504375 225.589451 
L 848.25397 225.589451 
" clip-path="url(#p38f506b044)" style="fill: none; stroke: #b0b0b0; stroke-opacity: 0.3; stroke-width: 0.8; stroke-linecap: square"/>
     </g>
     <g id="line2d_11">
      <g>
       <use xlink:href="#mc4d4c8f24e" x="47.504375" y="225.589451" style="stroke: #000000; stroke-width: 0.8"/>
      </g>
     </g>
     <g id="text_9">
      <!-- $\mathdefault{10^{0}}$ -->
      <g transform="translate(24.274375 230.230076) scale(0.09 -0.09)">
       <use xlink:href="#ArialMT-31" transform="translate(0 0.99375)"/>
       <use xlink:href="#ArialMT-30" transform="translate(55.615234 0.99375)"/>
       <use xlink:href="#ArialMT-30" transform="translate(112.972813 70.6875) scale(0.7)"/>
      </g>
     </g>
    </g>
    <g id="ytick_4">
     <g id="line2d_12">
      <path d="M 47.504375 177.589964 
L 848.25397 177.589964 
" clip-path="url(#p38f506b044)" style="fill: none; stroke: #b0b0b0; stroke-opacity: 0.3; stroke-width: 0.8; stroke-linecap: square"/>
     </g>
     <g id="line2d_13">
      <g>
       <use xlink:href="#mc4d4c8f24e" x="47.504375" y="177.589964" style="stroke: #000000; stroke-width: 0.8"/>
      </g>
     </g>
     <g id="text_10">
      <!-- $\mathdefault{10^{1}}$ -->
      <g transform="translate(24.274375 182.230589) scale(0.09 -0.09)">
       <use xlink:href="#ArialMT-31" transform="translate(0 0.99375)"/>
       <use xlink:href="#ArialMT-30" transform="translate(55.615234 0.99375)"/>
       <use xlink:href="#ArialMT-31" transform="translate(112.972813 70.6875) scale(0.7)"/>
      </g>
     </g>
    </g>
    <g id="ytick_5">
     <g id="line2d_14">
      <path d="M 47.504375 129.590477 
L 848.25397 129.590477 
" clip-path="url(#p38f506b044)" style="fill: none; stroke: #b0b0b0; stroke-opacity: 0.3; stroke-width: 0.8; stroke-linecap: square"/>
     </g>
     <g id="line2d_15">
      <g>
       <use xlink:href="#mc4d4c8f24e" x="47.504375" y="129.590477" style="stroke: #000000; stroke-width: 0.8"/>
      </g>
     </g>
     <g id="text_11">
      <!-- $\mathdefault{10^{2}}$ -->
      <g transform="translate(24.274375 134.231102) scale(0.09 -0.09)">
       <use xlink:href="#ArialMT-31" transform="translate(0 0.99375)"/>
       <use xlink:href="#ArialMT-30" transform="translate(55.615234 0.99375)"/>
       <use xlink:href="#ArialMT-32" transform="translate(112.972813 70.6875) scale(0.7)"/>
      </g>
     </g>
    </g>
    <g id="ytick_6">
     <g id="line2d_16">
      <path d="M 47.504375 81.59099 
L 848.25397 81.59099 
" clip-path="url(#p38f506b044)" style="fill: none; stroke: #b0b0b0; stroke-opacity: 0.3; stroke-width: 0.8; stroke-linecap: square"/>
     </g>
     <g id="line2d_17">
      <g>
       <use xlink:href="#mc4d4c8f24e" x="47.504375" y="81.59099" style="stroke: #000000; stroke-width: 0.8"/>
      </g>
     </g>
     <g id="text_12">
      <!-- $\mathdefault{10^{3}}$ -->
      <g transform="translate(24.274375 86.231615) scale(0.09 -0.09)">
       <defs>
        <path id="ArialMT-33" d="M 269 1209 
L 831 1284 
Q 928 806 1161 595 
Q 1394 384 1728 384 
Q 2125 384 2398 659 
Q 2672 934 2672 1341 
Q 2672 1728 2419 1979 
Q 2166 2231 1775 2231 
Q 1616 2231 1378 2169 
L 1441 2663 
Q 1497 2656 1531 2656 
Q 1891 2656 2178 2843 
Q 2466 3031 2466 3422 
Q 2466 3731 2256 3934 
Q 2047 4138 1716 4138 
Q 1388 4138 1169 3931 
Q 950 3725 888 3313 
L 325 3413 
Q 428 3978 793 4289 
Q 1159 4600 1703 4600 
Q 2078 4600 2393 4439 
Q 2709 4278 2876 4000 
Q 3044 3722 3044 3409 
Q 3044 3113 2884 2869 
Q 2725 2625 2413 2481 
Q 2819 2388 3044 2092 
Q 3269 1797 3269 1353 
Q 3269 753 2831 336 
Q 2394 -81 1725 -81 
Q 1122 -81 723 278 
Q 325 638 269 1209 
z
" transform="scale(0.015625)"/>
       </defs>
       <use xlink:href="#ArialMT-31" transform="translate(0 0.99375)"/>
       <use xlink:href="#ArialMT-30" transform="translate(55.615234 0.99375)"/>
       <use xlink:href="#ArialMT-33" transform="translate(112.972813 70.6875) scale(0.7)"/>
      </g>
     </g>
    </g>
    <g id="ytick_7">
     <g id="line2d_18">
      <path d="M 47.504375 33.591503 
L 848.25397 33.591503 
" clip-path="url(#p38f506b044)" style="fill: none; stroke: #b0b0b0; stroke-opacity: 0.3; stroke-width: 0.8; stroke-linecap: square"/>
     </g>
     <g id="line2d_19">
      <g>
       <use xlink:href="#mc4d4c8f24e" x="47.504375" y="33.591503" style="stroke: #000000; stroke-width: 0.8"/>
      </g>
     </g>
     <g id="text_13">
      <!-- $\mathdefault{10^{4}}$ -->
      <g transform="translate(24.274375 38.187128) scale(0.09 -0.09)">
       <defs>
        <path id="ArialMT-34" d="M 2069 0 
L 2069 1097 
L 81 1097 
L 81 1613 
L 2172 4581 
L 2631 4581 
L 2631 1613 
L 3250 1613 
L 3250 1097 
L 2631 1097 
L 2631 0 
L 2069 0 
z
M 2069 1613 
L 2069 3678 
L 634 1613 
L 2069 1613 
z
" transform="scale(0.015625)"/>
       </defs>
       <use xlink:href="#ArialMT-31" transform="translate(0 0.201563)"/>
       <use xlink:href="#ArialMT-30" transform="translate(55.615234 0.201563)"/>
       <use xlink:href="#ArialMT-34" transform="translate(112.972813 69.895313) scale(0.7)"/>
      </g>
     </g>
    </g>
    <g id="ytick_8">
     <g id="line2d_20">
      <defs>
       <path id="m5aa74bfd64" d="M 0 0 
L -2 0 
" style="stroke: #000000; stroke-width: 0.4"/>
      </defs>
      <g>
       <use xlink:href="#m5aa74bfd64" x="47.504375" y="355.138627" style="stroke: #000000; stroke-width: 0.4"/>
      </g>
     </g>
    </g>
    <g id="ytick_9">
     <g id="line2d_21">
      <g>
       <use xlink:href="#m5aa74bfd64" x="47.504375" y="346.686337" style="stroke: #000000; stroke-width: 0.4"/>
      </g>
     </g>
    </g>
    <g id="ytick_10">
     <g id="line2d_22">
      <g>
       <use xlink:href="#m5aa74bfd64" x="47.504375" y="340.689342" style="stroke: #000000; stroke-width: 0.4"/>
      </g>
     </g>
    </g>
    <g id="ytick_11">
     <g id="line2d_23">
      <g>
       <use xlink:href="#m5aa74bfd64" x="47.504375" y="336.037711" style="stroke: #000000; stroke-width: 0.4"/>
      </g>
     </g>
    </g>
    <g id="ytick_12">
     <g id="line2d_24">
      <g>
       <use xlink:href="#m5aa74bfd64" x="47.504375" y="332.237051" style="stroke: #000000; stroke-width: 0.4"/>
      </g>
     </g>
    </g>
    <g id="ytick_13">
     <g id="line2d_25">
      <g>
       <use xlink:href="#m5aa74bfd64" x="47.504375" y="329.02364" style="stroke: #000000; stroke-width: 0.4"/>
      </g>
     </g>
    </g>
    <g id="ytick_14">
     <g id="line2d_26">
      <g>
       <use xlink:href="#m5aa74bfd64" x="47.504375" y="326.240056" style="stroke: #000000; stroke-width: 0.4"/>
      </g>
     </g>
    </g>
    <g id="ytick_15">
     <g id="line2d_27">
      <g>
       <use xlink:href="#m5aa74bfd64" x="47.504375" y="323.784761" style="stroke: #000000; stroke-width: 0.4"/>
      </g>
     </g>
    </g>
    <g id="ytick_16">
     <g id="line2d_28">
      <g>
       <use xlink:href="#m5aa74bfd64" x="47.504375" y="307.13914" style="stroke: #000000; stroke-width: 0.4"/>
      </g>
     </g>
    </g>
    <g id="ytick_17">
     <g id="line2d_29">
      <g>
       <use xlink:href="#m5aa74bfd64" x="47.504375" y="298.68685" style="stroke: #000000; stroke-width: 0.4"/>
      </g>
     </g>
    </g>
    <g id="ytick_18">
     <g id="line2d_30">
      <g>
       <use xlink:href="#m5aa74bfd64" x="47.504375" y="292.689854" style="stroke: #000000; stroke-width: 0.4"/>
      </g>
     </g>
    </g>
    <g id="ytick_19">
     <g id="line2d_31">
      <g>
       <use xlink:href="#m5aa74bfd64" x="47.504375" y="288.038224" style="stroke: #000000; stroke-width: 0.4"/>
      </g>
     </g>
    </g>
    <g id="ytick_20">
     <g id="line2d_32">
      <g>
       <use xlink:href="#m5aa74bfd64" x="47.504375" y="284.237564" style="stroke: #000000; stroke-width: 0.4"/>
      </g>
     </g>
    </g>
    <g id="ytick_21">
     <g id="line2d_33">
      <g>
       <use xlink:href="#m5aa74bfd64" x="47.504375" y="281.024153" style="stroke: #000000; stroke-width: 0.4"/>
      </g>
     </g>
    </g>
    <g id="ytick_22">
     <g id="line2d_34">
      <g>
       <use xlink:href="#m5aa74bfd64" x="47.504375" y="278.240569" style="stroke: #000000; stroke-width: 0.4"/>
      </g>
     </g>
    </g>
    <g id="ytick_23">
     <g id="line2d_35">
      <g>
       <use xlink:href="#m5aa74bfd64" x="47.504375" y="275.785274" style="stroke: #000000; stroke-width: 0.4"/>
      </g>
     </g>
    </g>
    <g id="ytick_24">
     <g id="line2d_36">
      <g>
       <use xlink:href="#m5aa74bfd64" x="47.504375" y="259.139653" style="stroke: #000000; stroke-width: 0.4"/>
      </g>
     </g>
    </g>
    <g id="ytick_25">
     <g id="line2d_37">
      <g>
       <use xlink:href="#m5aa74bfd64" x="47.504375" y="250.687363" style="stroke: #000000; stroke-width: 0.4"/>
      </g>
     </g>
    </g>
    <g id="ytick_26">
     <g id="line2d_38">
      <g>
       <use xlink:href="#m5aa74bfd64" x="47.504375" y="244.690367" style="stroke: #000000; stroke-width: 0.4"/>
      </g>
     </g>
    </g>
    <g id="ytick_27">
     <g id="line2d_39">
      <g>
       <use xlink:href="#m5aa74bfd64" x="47.504375" y="240.038737" style="stroke: #000000; stroke-width: 0.4"/>
      </g>
     </g>
    </g>
    <g id="ytick_28">
     <g id="line2d_40">
      <g>
       <use xlink:href="#m5aa74bfd64" x="47.504375" y="236.238077" style="stroke: #000000; stroke-width: 0.4"/>
      </g>
     </g>
    </g>
    <g id="ytick_29">
     <g id="line2d_41">
      <g>
       <use xlink:href="#m5aa74bfd64" x="47.504375" y="233.024666" style="stroke: #000000; stroke-width: 0.4"/>
      </g>
     </g>
    </g>
    <g id="ytick_30">
     <g id="line2d_42">
      <g>
       <use xlink:href="#m5aa74bfd64" x="47.504375" y="230.241082" style="stroke: #000000; stroke-width: 0.4"/>
      </g>
     </g>
    </g>
    <g id="ytick_31">
     <g id="line2d_43">
      <g>
       <use xlink:href="#m5aa74bfd64" x="47.504375" y="227.785787" style="stroke: #000000; stroke-width: 0.4"/>
      </g>
     </g>
    </g>
    <g id="ytick_32">
     <g id="line2d_44">
      <g>
       <use xlink:href="#m5aa74bfd64" x="47.504375" y="211.140166" style="stroke: #000000; stroke-width: 0.4"/>
      </g>
     </g>
    </g>
    <g id="ytick_33">
     <g id="line2d_45">
      <g>
       <use xlink:href="#m5aa74bfd64" x="47.504375" y="202.687876" style="stroke: #000000; stroke-width: 0.4"/>
      </g>
     </g>
    </g>
    <g id="ytick_34">
     <g id="line2d_46">
      <g>
       <use xlink:href="#m5aa74bfd64" x="47.504375" y="196.69088" style="stroke: #000000; stroke-width: 0.4"/>
      </g>
     </g>
    </g>
    <g id="ytick_35">
     <g id="line2d_47">
      <g>
       <use xlink:href="#m5aa74bfd64" x="47.504375" y="192.039249" style="stroke: #000000; stroke-width: 0.4"/>
      </g>
     </g>
    </g>
    <g id="ytick_36">
     <g id="line2d_48">
      <g>
       <use xlink:href="#m5aa74bfd64" x="47.504375" y="188.23859" style="stroke: #000000; stroke-width: 0.4"/>
      </g>
     </g>
    </g>
    <g id="ytick_37">
     <g id="line2d_49">
      <g>
       <use xlink:href="#m5aa74bfd64" x="47.504375" y="185.025179" style="stroke: #000000; stroke-width: 0.4"/>
      </g>
     </g>
    </g>
    <g id="ytick_38">
     <g id="line2d_50">
      <g>
       <use xlink:href="#m5aa74bfd64" x="47.504375" y="182.241595" style="stroke: #000000; stroke-width: 0.4"/>
      </g>
     </g>
    </g>
    <g id="ytick_39">
     <g id="line2d_51">
      <g>
       <use xlink:href="#m5aa74bfd64" x="47.504375" y="179.7863" style="stroke: #000000; stroke-width: 0.4"/>
      </g>
     </g>
    </g>
    <g id="ytick_40">
     <g id="line2d_52">
      <g>
       <use xlink:href="#m5aa74bfd64" x="47.504375" y="163.140679" style="stroke: #000000; stroke-width: 0.4"/>
      </g>
     </g>
    </g>
    <g id="ytick_41">
     <g id="line2d_53">
      <g>
       <use xlink:href="#m5aa74bfd64" x="47.504375" y="154.688389" style="stroke: #000000; stroke-width: 0.4"/>
      </g>
     </g>
    </g>
    <g id="ytick_42">
     <g id="line2d_54">
      <g>
       <use xlink:href="#m5aa74bfd64" x="47.504375" y="148.691393" style="stroke: #000000; stroke-width: 0.4"/>
      </g>
     </g>
    </g>
    <g id="ytick_43">
     <g id="line2d_55">
      <g>
       <use xlink:href="#m5aa74bfd64" x="47.504375" y="144.039762" style="stroke: #000000; stroke-width: 0.4"/>
      </g>
     </g>
    </g>
    <g id="ytick_44">
     <g id="line2d_56">
      <g>
       <use xlink:href="#m5aa74bfd64" x="47.504375" y="140.239103" style="stroke: #000000; stroke-width: 0.4"/>
      </g>
     </g>
    </g>
    <g id="ytick_45">
     <g id="line2d_57">
      <g>
       <use xlink:href="#m5aa74bfd64" x="47.504375" y="137.025692" style="stroke: #000000; stroke-width: 0.4"/>
      </g>
     </g>
    </g>
    <g id="ytick_46">
     <g id="line2d_58">
      <g>
       <use xlink:href="#m5aa74bfd64" x="47.504375" y="134.242108" style="stroke: #000000; stroke-width: 0.4"/>
      </g>
     </g>
    </g>
    <g id="ytick_47">
     <g id="line2d_59">
      <g>
       <use xlink:href="#m5aa74bfd64" x="47.504375" y="131.786813" style="stroke: #000000; stroke-width: 0.4"/>
      </g>
     </g>
    </g>
    <g id="ytick_48">
     <g id="line2d_60">
      <g>
       <use xlink:href="#m5aa74bfd64" x="47.504375" y="115.141192" style="stroke: #000000; stroke-width: 0.4"/>
      </g>
     </g>
    </g>
    <g id="ytick_49">
     <g id="line2d_61">
      <g>
       <use xlink:href="#m5aa74bfd64" x="47.504375" y="106.688902" style="stroke: #000000; stroke-width: 0.4"/>
      </g>
     </g>
    </g>
    <g id="ytick_50">
     <g id="line2d_62">
      <g>
       <use xlink:href="#m5aa74bfd64" x="47.504375" y="100.691906" style="stroke: #000000; stroke-width: 0.4"/>
      </g>
     </g>
    </g>
    <g id="ytick_51">
     <g id="line2d_63">
      <g>
       <use xlink:href="#m5aa74bfd64" x="47.504375" y="96.040275" style="stroke: #000000; stroke-width: 0.4"/>
      </g>
     </g>
    </g>
    <g id="ytick_52">
     <g id="line2d_64">
      <g>
       <use xlink:href="#m5aa74bfd64" x="47.504375" y="92.239616" style="stroke: #000000; stroke-width: 0.4"/>
      </g>
     </g>
    </g>
    <g id="ytick_53">
     <g id="line2d_65">
      <g>
       <use xlink:href="#m5aa74bfd64" x="47.504375" y="89.026205" style="stroke: #000000; stroke-width: 0.4"/>
      </g>
     </g>
    </g>
    <g id="ytick_54">
     <g id="line2d_66">
      <g>
       <use xlink:href="#m5aa74bfd64" x="47.504375" y="86.242621" style="stroke: #000000; stroke-width: 0.4"/>
      </g>
     </g>
    </g>
    <g id="ytick_55">
     <g id="line2d_67">
      <g>
       <use xlink:href="#m5aa74bfd64" x="47.504375" y="83.787326" style="stroke: #000000; stroke-width: 0.4"/>
      </g>
     </g>
    </g>
    <g id="ytick_56">
     <g id="line2d_68">
      <g>
       <use xlink:href="#m5aa74bfd64" x="47.504375" y="67.141705" style="stroke: #000000; stroke-width: 0.4"/>
      </g>
     </g>
    </g>
    <g id="ytick_57">
     <g id="line2d_69">
      <g>
       <use xlink:href="#m5aa74bfd64" x="47.504375" y="58.689415" style="stroke: #000000; stroke-width: 0.4"/>
      </g>
     </g>
    </g>
    <g id="ytick_58">
     <g id="line2d_70">
      <g>
       <use xlink:href="#m5aa74bfd64" x="47.504375" y="52.692419" style="stroke: #000000; stroke-width: 0.4"/>
      </g>
     </g>
    </g>
    <g id="ytick_59">
     <g id="line2d_71">
      <g>
       <use xlink:href="#m5aa74bfd64" x="47.504375" y="48.040788" style="stroke: #000000; stroke-width: 0.4"/>
      </g>
     </g>
    </g>
    <g id="ytick_60">
     <g id="line2d_72">
      <g>
       <use xlink:href="#m5aa74bfd64" x="47.504375" y="44.240129" style="stroke: #000000; stroke-width: 0.4"/>
      </g>
     </g>
    </g>
    <g id="ytick_61">
     <g id="line2d_73">
      <g>
       <use xlink:href="#m5aa74bfd64" x="47.504375" y="41.026718" style="stroke: #000000; stroke-width: 0.4"/>
      </g>
     </g>
    </g>
    <g id="ytick_62">
     <g id="line2d_74">
      <g>
       <use xlink:href="#m5aa74bfd64" x="47.504375" y="38.243134" style="stroke: #000000; stroke-width: 0.4"/>
      </g>
     </g>
    </g>
    <g id="ytick_63">
     <g id="line2d_75">
      <g>
       <use xlink:href="#m5aa74bfd64" x="47.504375" y="35.787839" style="stroke: #000000; stroke-width: 0.4"/>
      </g>
     </g>
    </g>
    <g id="text_14">
     <!-- EMVP (µg metal / L) -->
     <g transform="translate(14.479687 236.558858) rotate(-90) scale(0.1 -0.1)">
      <defs>
       <path id="ArialMT-45" d="M 506 0 
L 506 4581 
L 3819 4581 
L 3819 4041 
L 1113 4041 
L 1113 2638 
L 3647 2638 
L 3647 2100 
L 1113 2100 
L 1113 541 
L 3925 541 
L 3925 0 
L 506 0 
z
" transform="scale(0.015625)"/>
       <path id="ArialMT-56" d="M 1803 0 
L 28 4581 
L 684 4581 
L 1875 1253 
Q 2019 853 2116 503 
Q 2222 878 2363 1253 
L 3600 4581 
L 4219 4581 
L 2425 0 
L 1803 0 
z
" transform="scale(0.015625)"/>
       <path id="ArialMT-28" d="M 1497 -1347 
Q 1031 -759 709 28 
Q 388 816 388 1659 
Q 388 2403 628 3084 
Q 909 3875 1497 4659 
L 1900 4659 
Q 1522 4009 1400 3731 
Q 1209 3300 1100 2831 
Q 966 2247 966 1656 
Q 966 153 1900 -1347 
L 1497 -1347 
z
" transform="scale(0.015625)"/>
       <path id="ArialMT-b5" d="M 3181 3319 
L 3181 0 
L 2678 0 
L 2678 394 
Q 2516 144 2356 50 
Q 2138 -78 1847 -78 
Q 1588 -78 1388 25 
Q 1238 103 1056 334 
L 1056 -1272 
L 500 -1272 
L 500 3319 
L 1056 3319 
L 1056 1913 
Q 1056 1147 1137 920 
Q 1219 694 1401 562 
Q 1584 431 1822 431 
Q 2072 431 2269 568 
Q 2466 706 2547 923 
Q 2628 1141 2628 1903 
L 2628 3319 
L 3181 3319 
z
" transform="scale(0.015625)"/>
       <path id="ArialMT-2f" d="M 0 -78 
L 1328 4659 
L 1778 4659 
L 453 -78 
L 0 -78 
z
" transform="scale(0.015625)"/>
       <path id="ArialMT-4c" d="M 469 0 
L 469 4581 
L 1075 4581 
L 1075 541 
L 3331 541 
L 3331 0 
L 469 0 
z
" transform="scale(0.015625)"/>
       <path id="ArialMT-29" d="M 791 -1347 
L 388 -1347 
Q 1322 153 1322 1656 
Q 1322 2244 1188 2822 
Q 1081 3291 891 3722 
Q 769 4003 388 4659 
L 791 4659 
Q 1378 3875 1659 3084 
Q 1900 2403 1900 1659 
Q 1900 816 1576 28 
Q 1253 -759 791 -1347 
z
" transform="scale(0.015625)"/>
      </defs>
      <use xlink:href="#ArialMT-45"/>
      <use xlink:href="#ArialMT-4d" transform="translate(66.699219 0)"/>
      <use xlink:href="#ArialMT-56" transform="translate(150 0)"/>
      <use xlink:href="#ArialMT-50" transform="translate(216.699219 0)"/>
      <use xlink:href="#ArialMT-20" transform="translate(281.648438 0)"/>
      <use xlink:href="#ArialMT-28" transform="translate(309.431641 0)"/>
      <use xlink:href="#ArialMT-b5" transform="translate(342.732422 0)"/>
      <use xlink:href="#ArialMT-67" transform="translate(400.349609 0)"/>
      <use xlink:href="#ArialMT-20" transform="translate(455.964844 0)"/>
      <use xlink:href="#ArialMT-6d" transform="translate(483.748047 0)"/>
      <use xlink:href="#ArialMT-65" transform="translate(567.048828 0)"/>
      <use xlink:href="#ArialMT-74" transform="translate(622.664062 0)"/>
      <use xlink:href="#ArialMT-61" transform="translate(650.447266 0)"/>
      <use xlink:href="#ArialMT-6c" transform="translate(706.0625 0)"/>
      <use xlink:href="#ArialMT-20" transform="translate(728.279297 0)"/>
      <use xlink:href="#ArialMT-2f" transform="translate(756.0625 0)"/>
      <use xlink:href="#ArialMT-20" transform="translate(783.845703 0)"/>
      <use xlink:href="#ArialMT-4c" transform="translate(811.628906 0)"/>
      <use xlink:href="#ArialMT-29" transform="translate(867.244141 0)"/>
     </g>
    </g>
   </g>
   <g id="patch_48">
    <path d="M 47.504375 361.276778 
L 47.504375 21.789375 
" style="fill: none; stroke: #000000; stroke-width: 0.8; stroke-linejoin: miter; stroke-linecap: square"/>
   </g>
   <g id="patch_49">
    <path d="M 848.25397 361.276778 
L 848.25397 21.789375 
" style="fill: none; stroke: #000000; stroke-width: 0.8; stroke-linejoin: miter; stroke-linecap: square"/>
   </g>
   <g id="patch_50">
    <path d="M 47.504375 361.276778 
L 848.25397 361.276778 
" style="fill: none; stroke: #000000; stroke-width: 0.8; stroke-linejoin: miter; stroke-linecap: square"/>
   </g>
   <g id="patch_51">
    <path d="M 47.504375 21.789375 
L 848.25397 21.789375 
" style="fill: none; stroke: #000000; stroke-width: 0.8; stroke-linejoin: miter; stroke-linecap: square"/>
   </g>
   <g id="text_15">
    <!-- Environmental Metal Vector Potential -->
    <g transform="translate(349.49886 15.789375) scale(0.12 -0.12)">
     <defs>
      <path id="ArialMT-76" d="M 1344 0 
L 81 3319 
L 675 3319 
L 1388 1331 
Q 1503 1009 1600 663 
Q 1675 925 1809 1294 
L 2547 3319 
L 3125 3319 
L 1869 0 
L 1344 0 
z
" transform="scale(0.015625)"/>
     </defs>
     <use xlink:href="#ArialMT-45"/>
     <use xlink:href="#ArialMT-6e" transform="translate(66.699219 0)"/>
     <use xlink:href="#ArialMT-76" transform="translate(122.314453 0)"/>
     <use xlink:href="#ArialMT-69" transform="translate(172.314453 0)"/>
     <use xlink:href="#ArialMT-72" transform="translate(194.53125 0)"/>
     <use xlink:href="#ArialMT-6f" transform="translate(227.832031 0)"/>
     <use xlink:href="#ArialMT-6e" transform="translate(283.447266 0)"/>
     <use xlink:href="#ArialMT-6d" transform="translate(339.0625 0)"/>
     <use xlink:href="#ArialMT-65" transform="translate(422.363281 0)"/>
     <use xlink:href="#ArialMT-6e" transform="translate(477.978516 0)"/>
     <use xlink:href="#ArialMT-74" transform="translate(533.59375 0)"/>
     <use xlink:href="#ArialMT-61" transform="translate(561.376953 0)"/>
     <use xlink:href="#ArialMT-6c" transform="translate(616.992188 0)"/>
     <use xlink:href="#ArialMT-20" transform="translate(639.208984 0)"/>
     <use xlink:href="#ArialMT-4d" transform="translate(666.992188 0)"/>
     <use xlink:href="#ArialMT-65" transform="translate(750.292969 0)"/>
     <use xlink:href="#ArialMT-74" transform="translate(805.908203 0)"/>
     <use xlink:href="#ArialMT-61" transform="translate(833.691406 0)"/>
     <use xlink:href="#ArialMT-6c" transform="translate(889.306641 0)"/>
     <use xlink:href="#ArialMT-20" transform="translate(911.523438 0)"/>
     <use xlink:href="#ArialMT-56" transform="translate(939.306641 0)"/>
     <use xlink:href="#ArialMT-65" transform="translate(1000.505859 0)"/>
     <use xlink:href="#ArialMT-63" transform="translate(1056.121094 0)"/>
     <use xlink:href="#ArialMT-74" transform="translate(1106.121094 0)"/>
     <use xlink:href="#ArialMT-6f" transform="translate(1133.904297 0)"/>
     <use xlink:href="#ArialMT-72" transform="translate(1189.519531 0)"/>
     <use xlink:href="#ArialMT-20" transform="translate(1222.820312 0)"/>
     <use xlink:href="#ArialMT-50" transform="translate(1250.603516 0)"/>
     <use xlink:href="#ArialMT-6f" transform="translate(1317.302734 0)"/>
     <use xlink:href="#ArialMT-74" transform="translate(1372.917969 0)"/>
     <use xlink:href="#ArialMT-65" transform="translate(1400.701172 0)"/>
     <use xlink:href="#ArialMT-6e" transform="translate(1456.316406 0)"/>
     <use xlink:href="#ArialMT-74" transform="translate(1511.931641 0)"/>
     <use xlink:href="#ArialMT-69" transform="translate(1539.714844 0)"/>
     <use xlink:href="#ArialMT-61" transform="translate(1561.931641 0)"/>
     <use xlink:href="#ArialMT-6c" transform="translate(1617.546875 0)"/>
    </g>
   </g>
   <g id="legend_1">
    <g id="patch_52">
     <path d="M 53.804375 143.671875 
L 95.105937 143.671875 
Q 96.905937 143.671875 96.905937 141.871875 
L 96.905937 28.089375 
Q 96.905937 26.289375 95.105937 26.289375 
L 53.804375 26.289375 
Q 52.004375 26.289375 52.004375 28.089375 
L 52.004375 141.871875 
Q 52.004375 143.671875 53.804375 143.671875 
z
" style="fill: #ffffff; opacity: 0.8; stroke: #cccccc; stroke-width: 0.24; stroke-linejoin: miter"/>
    </g>
    <g id="patch_53">
     <path d="M 55.604375 36.331406 
L 73.604375 36.331406 
L 73.604375 30.031406 
L 55.604375 30.031406 
z
" style="fill: #1f77b4; opacity: 0.8"/>
    </g>
    <g id="text_16">
     <!-- As -->
     <g transform="translate(80.804375 36.331406) scale(0.09 -0.09)">
      <defs>
       <path id="ArialMT-41" d="M -9 0 
L 1750 4581 
L 2403 4581 
L 4278 0 
L 3588 0 
L 3053 1388 
L 1138 1388 
L 634 0 
L -9 0 
z
M 1313 1881 
L 2866 1881 
L 2388 3150 
Q 2169 3728 2063 4100 
Q 1975 3659 1816 3225 
L 1313 1881 
z
" transform="scale(0.015625)"/>
      </defs>
      <use xlink:href="#ArialMT-41"/>
      <use xlink:href="#ArialMT-73" transform="translate(66.699219 0)"/>
     </g>
    </g>
    <g id="patch_54">
     <path d="M 55.604375 49.062187 
L 73.604375 49.062187 
L 73.604375 42.762187 
L 55.604375 42.762187 
z
" style="fill: #ff7f0e; opacity: 0.8"/>
    </g>
    <g id="text_17">
     <!-- Cd -->
     <g transform="translate(80.804375 49.062187) scale(0.09 -0.09)">
      <use xlink:href="#ArialMT-43"/>
      <use xlink:href="#ArialMT-64" transform="translate(72.216797 0)"/>
     </g>
    </g>
    <g id="patch_55">
     <path d="M 55.604375 61.792969 
L 73.604375 61.792969 
L 73.604375 55.492969 
L 55.604375 55.492969 
z
" style="fill: #2ca02c; opacity: 0.8"/>
    </g>
    <g id="text_18">
     <!-- Cr -->
     <g transform="translate(80.804375 61.792969) scale(0.09 -0.09)">
      <use xlink:href="#ArialMT-43"/>
      <use xlink:href="#ArialMT-72" transform="translate(72.216797 0)"/>
     </g>
    </g>
    <g id="patch_56">
     <path d="M 55.604375 74.52375 
L 73.604375 74.52375 
L 73.604375 68.22375 
L 55.604375 68.22375 
z
" style="fill: #d62728; opacity: 0.8"/>
    </g>
    <g id="text_19">
     <!-- Cu -->
     <g transform="translate(80.804375 74.52375) scale(0.09 -0.09)">
      <defs>
       <path id="ArialMT-75" d="M 2597 0 
L 2597 488 
Q 2209 -75 1544 -75 
Q 1250 -75 995 37 
Q 741 150 617 320 
Q 494 491 444 738 
Q 409 903 409 1263 
L 409 3319 
L 972 3319 
L 972 1478 
Q 972 1038 1006 884 
Q 1059 663 1231 536 
Q 1403 409 1656 409 
Q 1909 409 2131 539 
Q 2353 669 2445 892 
Q 2538 1116 2538 1541 
L 2538 3319 
L 3100 3319 
L 3100 0 
L 2597 0 
z
" transform="scale(0.015625)"/>
      </defs>
      <use xlink:href="#ArialMT-43"/>
      <use xlink:href="#ArialMT-75" transform="translate(72.216797 0)"/>
     </g>
    </g>
    <g id="patch_57">
     <path d="M 55.604375 87.254531 
L 73.604375 87.254531 
L 73.604375 80.954531 
L 55.604375 80.954531 
z
" style="fill: #9467bd; opacity: 0.8"/>
    </g>
    <g id="text_20">
     <!-- Hg -->
     <g transform="translate(80.804375 87.254531) scale(0.09 -0.09)">
      <defs>
       <path id="ArialMT-48" d="M 513 0 
L 513 4581 
L 1119 4581 
L 1119 2700 
L 3500 2700 
L 3500 4581 
L 4106 4581 
L 4106 0 
L 3500 0 
L 3500 2159 
L 1119 2159 
L 1119 0 
L 513 0 
z
" transform="scale(0.015625)"/>
      </defs>
      <use xlink:href="#ArialMT-48"/>
      <use xlink:href="#ArialMT-67" transform="translate(72.216797 0)"/>
     </g>
    </g>
    <g id="patch_58">
     <path d="M 55.604375 100.090781 
L 73.604375 100.090781 
L 73.604375 93.790781 
L 55.604375 93.790781 
z
" style="fill: #8c564b; opacity: 0.8"/>
    </g>
    <g id="text_21">
     <!-- Mn -->
     <g transform="translate(80.804375 100.090781) scale(0.09 -0.09)">
      <use xlink:href="#ArialMT-4d"/>
      <use xlink:href="#ArialMT-6e" transform="translate(83.300781 0)"/>
     </g>
    </g>
    <g id="patch_59">
     <path d="M 55.604375 112.821562 
L 73.604375 112.821562 
L 73.604375 106.521562 
L 55.604375 106.521562 
z
" style="fill: #e377c2; opacity: 0.8"/>
    </g>
    <g id="text_22">
     <!-- Ni -->
     <g transform="translate(80.804375 112.821562) scale(0.09 -0.09)">
      <defs>
       <path id="ArialMT-4e" d="M 488 0 
L 488 4581 
L 1109 4581 
L 3516 984 
L 3516 4581 
L 4097 4581 
L 4097 0 
L 3475 0 
L 1069 3600 
L 1069 0 
L 488 0 
z
" transform="scale(0.015625)"/>
      </defs>
      <use xlink:href="#ArialMT-4e"/>
      <use xlink:href="#ArialMT-69" transform="translate(72.216797 0)"/>
     </g>
    </g>
    <g id="patch_60">
     <path d="M 55.604375 125.552344 
L 73.604375 125.552344 
L 73.604375 119.252344 
L 55.604375 119.252344 
z
" style="fill: #7f7f7f; opacity: 0.8"/>
    </g>
    <g id="text_23">
     <!-- Pb -->
     <g transform="translate(80.804375 125.552344) scale(0.09 -0.09)">
      <defs>
       <path id="ArialMT-62" d="M 941 0 
L 419 0 
L 419 4581 
L 981 4581 
L 981 2947 
Q 1338 3394 1891 3394 
Q 2197 3394 2470 3270 
Q 2744 3147 2920 2923 
Q 3097 2700 3197 2384 
Q 3297 2069 3297 1709 
Q 3297 856 2875 390 
Q 2453 -75 1863 -75 
Q 1275 -75 941 416 
L 941 0 
z
M 934 1684 
Q 934 1088 1097 822 
Q 1363 388 1816 388 
Q 2184 388 2453 708 
Q 2722 1028 2722 1663 
Q 2722 2313 2464 2622 
Q 2206 2931 1841 2931 
Q 1472 2931 1203 2611 
Q 934 2291 934 1684 
z
" transform="scale(0.015625)"/>
      </defs>
      <use xlink:href="#ArialMT-50"/>
      <use xlink:href="#ArialMT-62" transform="translate(66.699219 0)"/>
     </g>
    </g>
    <g id="patch_61">
     <path d="M 55.604375 138.283125 
L 73.604375 138.283125 
L 73.604375 131.983125 
L 55.604375 131.983125 
z
" style="fill: #bcbd22; opacity: 0.8"/>
    </g>
    <g id="text_24">
     <!-- Zn -->
     <g transform="translate(80.804375 138.283125) scale(0.09 -0.09)">
      <defs>
       <path id="ArialMT-5a" d="M 128 0 
L 128 563 
L 2475 3497 
Q 2725 3809 2950 4041 
L 394 4041 
L 394 4581 
L 3675 4581 
L 3675 4041 
L 1103 863 
L 825 541 
L 3750 541 
L 3750 0 
L 128 0 
z
" transform="scale(0.015625)"/>
      </defs>
      <use xlink:href="#ArialMT-5a"/>
      <use xlink:href="#ArialMT-6e" transform="translate(61.083984 0)"/>
     </g>
    </g>
   </g>
  </g>
 </g>
 <defs>
  <clipPath id="p38f506b044">
   <rect x="47.504375" y="21.789375" width="800.749595" height="339.487403"/>
  </clipPath>
 </defs>
</svg>
